<svg width="153" height="153" viewBox="0 0 153 153" fill="none" xmlns="http://www.w3.org/2000/svg">
<circle cx="106.5" cy="44.4968" r="5" fill="white" stroke="black"/>
<path d="M59.45 94.9968H51.85V60.0968H68.4C70 60.0968 71.45 60.3635 72.75 60.8968C74.05 61.4302 75.15 62.1968 76.05 63.1968C76.9833 64.1635 77.7 65.3302 78.2 66.6968C78.7 68.0635 78.95 69.5802 78.95 71.2468C78.95 73.6135 78.4167 75.6802 77.35 77.4468C76.3167 79.2135 74.7333 80.4968 72.6 81.2968L79.45 94.9968H71L64.9 82.1968H59.45V94.9968ZM67.45 75.7968C68.5833 75.7968 69.4667 75.5135 70.1 74.9468C70.7667 74.3468 71.1 73.4802 71.1 72.3468V70.1468C71.1 69.0135 70.7667 68.1635 70.1 67.5968C69.4667 66.9968 68.5833 66.6968 67.45 66.6968H59.45V75.7968H67.45ZM84.1914 94.9968V88.9468H88.6914V66.1468H84.1914V60.0968H100.791V66.1468H96.2914V88.9468H100.791V94.9968H84.1914Z" fill="black"/>
<path d="M24 126.997V24.9968H110.042L129 43.0819V126.997H24Z" stroke="black" stroke-width="5"/>
<path d="M36.5 78.9968V38.9968H86.5" stroke="black" stroke-width="2"/>
<path d="M38 88.4968V115.497H115V57.4968" stroke="black" stroke-width="2"/>
<path d="M0 47.9968H19" stroke="black" stroke-width="2"/>
<path d="M153 46.9968H133" stroke="black" stroke-width="2"/>
<path d="M37.8992 0L37.8992 20" stroke="black" stroke-width="2"/>
<path d="M38 152.997L38 132.997" stroke="black" stroke-width="2"/>
<path d="M0 64.9968H19" stroke="black" stroke-width="2"/>
<path d="M153 63.9968H133" stroke="black" stroke-width="2"/>
<path d="M54.8988 0.118164L54.8988 20.1182" stroke="black" stroke-width="2"/>
<path d="M55 152.997L55 132.997" stroke="black" stroke-width="2"/>
<path d="M0 82.9968H19" stroke="black" stroke-width="2"/>
<path d="M153 81.9968H133" stroke="black" stroke-width="2"/>
<path d="M72.8984 0.243408V20.2434" stroke="black" stroke-width="2"/>
<path d="M73 151.997V132.997" stroke="black" stroke-width="2"/>
<path d="M0 99.9968H19" stroke="black" stroke-width="2"/>
<path d="M153 98.9968H133" stroke="black" stroke-width="2"/>
<path d="M89.8979 0.361572V20.3616" stroke="black" stroke-width="2"/>
<path d="M90 151.997V132.997" stroke="black" stroke-width="2"/>
<path d="M0 117.997H19" stroke="black" stroke-width="2"/>
<path d="M153 116.997H133" stroke="black" stroke-width="2"/>
<path d="M107.897 0.486694V20.4867" stroke="black" stroke-width="2"/>
<path d="M108 151.997V131.997" stroke="black" stroke-width="2"/>
</svg>
